<svg width="161" height="131" xmlns="http://www.w3.org/2000/svg" xmlns:xlink="http://www.w3.org/1999/xlink"><defs><path id="a" d="M.15.507h80.918v144.665H.15z"/><path id="c" d="M.524.245h76.682v124.17H.524z"/></defs><g fill="none" fill-rule="evenodd" opacity=".2"><path d="M145.568-39.244a3.498 3.498 0 0 0 3.406-2.717h82.218v73.08l-35.51 35.508v37.318a3.491 3.491 0 0 0-2.503 3.34 3.502 3.502 0 0 0 7.002 0 3.496 3.496 0 0 0-2.928-3.446V67.278l35.51-35.508v-75.303h-83.789a3.499 3.499 0 0 0-6.906.789 3.5 3.5 0 0 0 3.5 3.5M55.05 5.977c.683 0 1.314-.203 1.852-.541l45.016 45.018v69.507a3.499 3.499 0 0 0 .784 6.908 3.504 3.504 0 0 0 3.504-3.5 3.498 3.498 0 0 0-2.716-3.407V49.803L58.013 4.325c.338-.538.54-1.166.54-1.849a3.501 3.501 0 1 0-3.503 3.5" fill="#0055B8"/><path d="M29.062-39.244a3.503 3.503 0 0 0 3.407-2.717h35.287l67.137 67.135v60.02a3.496 3.496 0 0 0 .784 6.905 3.503 3.503 0 0 0 3.504-3.5 3.5 3.5 0 0 0-2.716-3.405v-60.67L68.407-43.534h-35.94a3.497 3.497 0 0 0-6.906.789 3.5 3.5 0 0 0 3.5 3.5" fill="#0055B8"/><g transform="rotate(-180 39.576 40.944)"><mask id="b" fill="#fff"><use xlink:href="#a"/></mask><path d="M78.353 138.265V77.597L6.613 5.858a3.49 3.49 0 0 0 .539-1.853 3.5 3.5 0 0 0-3.5-3.498A3.502 3.502 0 0 0 .15 4.005 3.503 3.503 0 0 0 3.653 7.51c.68 0 1.312-.203 1.848-.54l71.28 71.279v60.017a3.5 3.5 0 0 0-2.716 3.404 3.506 3.506 0 0 0 3.504 3.504c1.933 0 3.5-1.57 3.5-3.504a3.497 3.497 0 0 0-2.716-3.404" fill="#0055B8" mask="url(#b)"/></g><g transform="rotate(-180 110.018 65.306)"><mask id="d" fill="#fff"><use xlink:href="#c"/></mask><path d="M77.206 3.744a3.501 3.501 0 0 0-7.002 0 3.5 3.5 0 0 0 2.715 3.405v79.123l-33.856 33.856H7.428a3.491 3.491 0 0 0-3.403-2.712 3.5 3.5 0 1 0 0 6.999 3.49 3.49 0 0 0 3.403-2.715h32.285l34.778-34.778V7.15a3.494 3.494 0 0 0 2.715-3.405" fill="#0055B8" mask="url(#d)"/></g><path d="M153.519 105.68a3.501 3.501 0 1 0 7.002 0 3.494 3.494 0 0 0-2.714-3.403v-50.77l11.379-11.38h21.94a3.498 3.498 0 0 0 3.404 2.717 3.503 3.503 0 0 0 0-7.004 3.498 3.498 0 0 0-3.404 2.716h-22.59l-12.301 12.3v51.42a3.495 3.495 0 0 0-2.716 3.404M50.85-21.467c.682 0 1.312-.202 1.851-.537l9.48 9.476h20.3V13.26h18.367l16.93 16.934v25.083a3.5 3.5 0 0 0-2.715 3.405 3.502 3.502 0 0 0 7.004 0 3.5 3.5 0 0 0-2.716-3.403V29.544L101.499 11.69H84.052V-14.1H62.831l-9.019-9.015c.338-.538.54-1.17.54-1.852a3.501 3.501 0 0 0-7.003 0 3.5 3.5 0 0 0 3.5 3.5m-25.553 8.739c.683 0 1.313-.202 1.852-.537L39.714-.701v22.075L79.41 61.072a3.46 3.46 0 0 0-.54 1.85 3.5 3.5 0 1 0 3.5-3.499c-.681 0-1.311.203-1.849.538L41.286 20.724V-1.351L28.259-14.376c.338-.538.54-1.17.54-1.852a3.501 3.501 0 0 0-7.003 0 3.5 3.5 0 0 0 3.5 3.5" fill="#0055B8"/></g></svg>