<svg width="282" height="450" xmlns="http://www.w3.org/2000/svg" xmlns:xlink="http://www.w3.org/1999/xlink"><defs><path id="a" d="M0 .32h201.489v96.757H0z"/><path id="c" d="M.525.047H138.33v25.87H.525z"/></defs><g fill="none" fill-rule="evenodd"><g opacity=".2" fill="#FFF"><path d="M243.893 520.519c0-1.738-1.224-3.186-2.86-3.562v-11.079H204.61l-57.85-57.367c.354-.561.568-1.22.568-1.933 0-2.02-1.652-3.66-3.69-3.66-2.037 0-3.688 1.64-3.688 3.66 0 2.022 1.651 3.658 3.689 3.658a3.69 3.69 0 0 0 1.95-.563l58.335 57.848h35.451v9.436c-1.637.376-2.86 1.824-2.86 3.562 0 2.02 1.65 3.658 3.688 3.658 2.038 0 3.69-1.638 3.69-3.658m-127.392 22.568c0-1.74-1.224-3.185-2.86-3.561v-41.137l14.171-14.054v-112.57l-25.589-25.375a3.604 3.604 0 0 0 .568-1.932c0-2.023-1.651-3.662-3.689-3.662-2.037 0-3.689 1.64-3.689 3.662 0 2.02 1.652 3.656 3.69 3.656.717 0 1.383-.21 1.95-.563l25.103 24.894v111.21l-14.172 14.054v41.817c-1.637.376-2.861 1.822-2.861 3.561 0 2.02 1.651 3.659 3.689 3.659 2.038 0 3.69-1.638 3.69-3.659M7.394 446.578c0-1.738-1.225-3.185-2.863-3.56v-7.763l28.963-28.72a3.685 3.685 0 0 0 1.85.509c2.037 0 3.688-1.638 3.688-3.659 0-2.02-1.651-3.66-3.689-3.66-2.037 0-3.689 1.64-3.689 3.66 0 .754.23 1.452.623 2.034L2.875 434.575v8.443c-1.637.375-2.861 1.822-2.861 3.56 0 2.02 1.653 3.659 3.689 3.659 2.037 0 3.69-1.638 3.69-3.659"/><path d="M27.691 479.281c0-1.892-1.454-3.433-3.311-3.624v-19.76l41.081-40.74v-33.832l-10.127-10.04H21.812a3.68 3.68 0 0 0-3.588-2.84c-2.036 0-3.69 1.64-3.69 3.662 0 2.02 1.654 3.657 3.69 3.657a3.676 3.676 0 0 0 3.588-2.837H54.65l9.156 9.078v32.472l-41.082 40.74v20.642c-1.404.518-2.41 1.848-2.41 3.422 0 2.02 1.652 3.658 3.69 3.658 2.037 0 3.688-1.637 3.688-3.658m40.63-24.431c0-.444-.091-.863-.237-1.257l13.358-13.245V397.01c1.637-.376 2.861-1.82 2.861-3.558 0-2.02-1.651-3.662-3.689-3.662-2.038 0-3.69 1.641-3.69 3.662 0 1.738 1.225 3.182 2.862 3.558v42.658l-12.632 12.524a3.68 3.68 0 0 0-2.523-1.004c-2.037 0-3.689 1.641-3.689 3.662 0 2.02 1.652 3.658 3.69 3.658 2.037 0 3.689-1.637 3.689-3.658"/><path d="M88.092 478.47c0-.714-.214-1.372-.568-1.936l17.293-17.149V388.05l-33.665-33.385H31.461l-24.637-24.43a3.6 3.6 0 0 0 .57-1.934c0-2.023-1.653-3.662-3.69-3.662s-3.69 1.64-3.69 3.662c0 2.02 1.653 3.656 3.69 3.656a3.69 3.69 0 0 0 1.95-.561l25.12 24.912h39.692l32.694 32.422v69.976l-16.807 16.668a3.67 3.67 0 0 0-1.95-.565c-2.038 0-3.69 1.64-3.69 3.661s1.652 3.659 3.69 3.659c2.037 0 3.69-1.638 3.69-3.659m79.284-65.045c0-1.74-1.222-3.186-2.86-3.562v-41.319l-47.819-47.423h-74.08a3.677 3.677 0 0 0-3.586-2.837c-2.04 0-3.69 1.64-3.69 3.66 0 2.022 1.65 3.659 3.69 3.659a3.675 3.675 0 0 0 3.588-2.84h73.392l46.848 46.461v40.64c-1.637.375-2.86 1.82-2.86 3.56 0 2.021 1.65 3.659 3.688 3.659 2.04 0 3.69-1.638 3.69-3.658"/><path d="M161.948 444.1c0-2.02-1.65-3.662-3.689-3.662-.717 0-1.383.212-1.948.565l-14.88-14.754v-36.676l7.656-7.591v-10.53l-11.888-11.787a3.624 3.624 0 0 0 .567-1.932c0-2.022-1.65-3.662-3.688-3.662-2.039 0-3.689 1.64-3.689 3.662 0 2.02 1.65 3.657 3.69 3.657a3.7 3.7 0 0 0 1.95-.562l11.401 11.304v9.168l-7.655 7.593v38.037l15.365 15.235a3.618 3.618 0 0 0-.568 1.935c0 2.02 1.65 3.658 3.687 3.658 2.04 0 3.69-1.638 3.69-3.658"/></g><g opacity=".201"><path d="M187.248-11.687c0-1.993 1.6-3.608 3.577-3.608 1.976 0 3.576 1.615 3.576 3.608a3.596 3.596 0 0 1-2.772 3.508v24.93l17.5 17.647h143.223l20.804 20.98a3.524 3.524 0 0 1 1.892-.555c1.976 0 3.577 1.615 3.577 3.607 0 1.993-1.601 3.608-3.577 3.608s-3.576-1.615-3.576-3.608c0-.703.206-1.352.548-1.906l-20.333-20.506H208.465l-18.443-18.597v-25.6a3.596 3.596 0 0 1-2.774-3.508" fill="#FFF"/><g transform="translate(128.833 -60.385)"><mask id="b" fill="#fff"><use xlink:href="#a"/></mask><path d="M3.577 89.862c1.7 0 3.113 1.197 3.479 2.798h28.67l9.217-9.295V43.762L85.249 3.117h109.183c.366-1.602 1.781-2.798 3.48-2.798 1.977 0 3.577 1.615 3.577 3.608 0 1.992-1.6 3.607-3.578 3.607-1.698 0-3.113-1.197-3.48-2.797H85.915L46.55 44.432v39.604L36.391 94.279H7.056c-.366 1.6-1.78 2.798-3.48 2.798C1.602 97.077 0 95.462 0 93.469c0-1.992 1.602-3.607 3.578-3.607" fill="#FFF" mask="url(#b)"/></g><path d="M205.677-6.992c1.976 0 3.58 1.615 3.58 3.608 0 .703-.208 1.352-.552 1.906l21.28 21.461h84.121c.367-1.6 1.779-2.797 3.478-2.797 1.976 0 3.58 1.615 3.58 3.607 0 1.993-1.604 3.608-3.58 3.608-1.7 0-3.111-1.197-3.478-2.798h-84.785L207.569-.333a3.538 3.538 0 0 1-1.892.556c-1.976 0-3.577-1.615-3.577-3.607 0-1.993 1.601-3.608 3.577-3.608" fill="#FFF"/><path d="M229.576-16.478c1.589 0 2.922 1.051 3.39 2.498h9.923l24.35 24.555 46.266-46.655h39.688v-21.638L342.42-68.583h-72.175c-.367 1.602-1.783 2.799-3.483 2.799-1.976 0-3.576-1.617-3.576-3.61 0-1.99 1.6-3.607 3.576-3.607 1.7 0 3.116 1.197 3.483 2.798h72.84L354.8-58.39v23.93h-40.63l-46.93 47.325-25.016-25.226h-9.12c-.248 1.748-1.726 3.098-3.528 3.098-1.976 0-3.577-1.615-3.577-3.608 0-1.992 1.601-3.607 3.577-3.607" fill="#FFF"/><g transform="translate(219.78 46.524)"><mask id="d" fill="#fff"><use xlink:href="#c"/></mask><path d="M4.102.047c1.492 0 2.77.92 3.306 2.228h108.61l16.843 16.982a3.535 3.535 0 0 1 1.889-.554c1.976 0 3.58 1.615 3.58 3.607 0 1.993-1.604 3.608-3.58 3.608s-3.577-1.615-3.577-3.608c0-.703.207-1.352.552-1.908L115.353 3.895H7.658c-.125 1.879-1.66 3.367-3.556 3.367-1.976 0-3.577-1.615-3.577-3.607C.525 1.662 2.126.047 4.102.047" fill="#FFF" mask="url(#d)"/></g></g></g></svg>