<svg width="80" height="74" xmlns="http://www.w3.org/2000/svg"><g fill="none"><path d="M76.667 0H3.333A3.335 3.335 0 0 0 0 3.333v53.334A3.335 3.335 0 0 0 3.333 60h33.334v6.667H23.333a3.335 3.335 0 0 0 0 6.666h33.334a3.335 3.335 0 0 0 0-6.666H43.333V60h33.334A3.335 3.335 0 0 0 80 56.667V3.333A3.335 3.335 0 0 0 76.667 0zm-3.334 53.333H6.667V6.667h66.666v46.666z" fill="#FFF"/><path d="M30.977 39.023c.65.652 1.503.977 2.356.977a3.333 3.333 0 0 0 2.357-5.69L31.382 30l4.308-4.31a3.333 3.333 0 1 0-4.713-4.713l-6.667 6.666a3.333 3.333 0 0 0 0 4.714l6.667 6.666zm13.333 0a3.32 3.32 0 0 0 2.357.977 3.32 3.32 0 0 0 2.356-.977l6.667-6.666a3.333 3.333 0 0 0 0-4.714l-6.667-6.666a3.333 3.333 0 1 0-4.713 4.713L48.62 30l-4.31 4.31a3.333 3.333 0 0 0 0 4.713z" fill="#00C08B"/></g></svg>