<svg width="89" height="91" xmlns="http://www.w3.org/2000/svg"><g fill="none" fill-rule="evenodd"><path d="M38.846 12.075C17.423 12.075 0 29.645 0 51.248 0 72.85 17.423 90.42 38.846 90.42c21.422 0 38.846-17.57 38.846-39.172a2.66 2.66 0 0 0-2.649-2.671H41.495v-33.83a2.661 2.661 0 0 0-2.65-2.672zm-2.649 5.593v33.58a2.66 2.66 0 0 0 2.649 2.67h33.273c-1.37 17.438-15.623 31.16-33.273 31.16-18.56 0-33.549-15.115-33.549-33.83 0-17.8 13.608-32.2 30.9-33.58z" fill="#FFF" fill-rule="nonzero"/><path d="M47.193 2.67v36.502c0 1.475 1.186 2.671 2.649 2.671h36.197c1.463 0 2.648-1.196 2.648-2.67C88.687 17.57 71.264 0 49.842 0a2.66 2.66 0 0 0-2.649 2.67z" fill="#00C08B"/></g></svg>