<svg width="50" height="45" xmlns="http://www.w3.org/2000/svg"><g fill="none"><path d="M12.04 26.99c-.101.816-.203 1.632-.203 2.5v.612c-.97-.306-1.888-.663-2.755-1.122-1.378.663-2.909.969-4.541.969-.561 0-1.123-.051-1.684-.102-.816-.102-1.428-.714-1.633-1.48-.204-.816.154-1.581.817-2.04.663-.409 1.173-1.02 1.581-1.735C1.531 21.99.408 18.878.408 15.663.408 7.193 8.163.306 17.704.306c7.755 0 14.286 4.54 16.48 10.765-.562-.05-1.123-.05-1.735-.05-.51 0-1.02 0-1.53.05-2.092-4.54-7.246-7.755-13.266-7.755-7.857 0-14.286 5.51-14.286 12.347 0 2.806 1.072 5.46 3.113 7.653l.612.664-.306.867c-.255.714-.613 1.429-1.072 1.99.97-.153 1.837-.46 2.602-.919l.766-.459.765.408c.714.51 1.429.817 2.194 1.123z" fill="#FFF"/><path d="M32.092 13.52c9.643 0 17.5 6.94 17.5 15.51 0 3.266-1.174 6.43-3.316 9.082.408.715.918 1.327 1.581 1.735.663.46 1.02 1.275.816 2.04-.153.817-.816 1.378-1.632 1.48-.561.102-1.123.102-1.684.102a10.85 10.85 0 0 1-4.643-1.02 19.37 19.37 0 0 1-8.673 2.04c-9.643 0-17.5-6.989-17.5-15.51 0-8.52 7.908-15.459 17.55-15.459zm0 3.01c-8.01 0-14.49 5.613-14.49 12.5 0 6.888 6.48 12.5 14.49 12.5 2.857 0 5.561-.714 7.959-2.04l.765-.46.766.46a7.8 7.8 0 0 0 2.653.918 7.806 7.806 0 0 1-1.072-2.04l-.306-.868.612-.663c2.041-2.245 3.113-4.95 3.113-7.806 0-6.888-6.48-12.5-14.49-12.5z" fill="#FFF"/><path d="M24.158 35.561a1.505 1.505 0 1 0 0-3.01 1.505 1.505 0 0 0 0 3.01zm5.306 0c.832 0 1.505-.674 1.505-1.505v-6.48a1.505 1.505 0 0 0-3.01 0v6.48c0 .831.674 1.505 1.505 1.505zm5.256 0c.83 0 1.504-.674 1.504-1.505v-3.52a1.505 1.505 0 1 0-3.01 0v3.52c0 .831.674 1.505 1.505 1.505zm5.306 0c.83 0 1.505-.674 1.505-1.505v-10.05a1.505 1.505 0 1 0-3.01 0v10.05c0 .831.673 1.505 1.505 1.505z" fill="#00C08B"/></g></svg>