<svg width="297" height="425" xmlns="http://www.w3.org/2000/svg" xmlns:xlink="http://www.w3.org/1999/xlink"><defs><path id="a" d="M0 .014h348.641v280.522H0z"/></defs><g fill="none" fill-rule="evenodd" opacity=".2"><g transform="rotate(90 140.235 140.503)"><mask id="b" fill="#fff"><use xlink:href="#a"/></mask><path d="M329.97 177.084H213.715l-54.592-54.592V85.57h77.6l20.489-20.49V26.22L233.999 3.003h-73.2a3.853 3.853 0 0 0-3.75-2.99 3.859 3.859 0 0 0-3.86 3.854 3.86 3.86 0 0 0 3.86 3.86 3.854 3.854 0 0 0 3.749-2.992h72.484l22.198 22.2v37.428l-19.474 19.475H157.39v39.37l55.607 55.607h116.255l17.656 17.655v44.09l-38.243 38.244H110.782L35.7 203.726H4.722v-63.792a3.855 3.855 0 0 0-.862-7.611A3.86 3.86 0 0 0 0 136.179a3.856 3.856 0 0 0 2.99 3.755v65.524h31.992l75.083 75.078h199.318l39.258-39.258v-45.524l-18.671-18.67z" fill="#FFF" mask="url(#b)"/></g><path d="M292.46 424.56a3.856 3.856 0 1 0 0-7.714 3.854 3.854 0 0 0-3.751 2.99H94.465v-49.352l45.369-45.369v-95.628a3.85 3.85 0 0 0 2.989-3.75 3.859 3.859 0 0 0-3.855-3.86 3.86 3.86 0 0 0-3.86 3.86 3.855 3.855 0 0 0 2.994 3.75v94.911l-45.369 45.37v51.8h195.974a3.853 3.853 0 0 0 3.753 2.992" fill="#FFF"/><path d="M112.272 405.189a3.853 3.853 0 0 0-2.991-3.755v-11.64l40.527-40.526v-72.853l11.909-11.909v-46.195l-7.256-7.255c.305-.555.494-1.18.494-1.857a3.856 3.856 0 1 0-7.712 0 3.854 3.854 0 0 0 3.857 3.857c.824 0 1.583-.265 2.208-.703l6.677 6.675v44.761l-11.909 11.91v72.852l-40.527 40.526v12.359a3.855 3.855 0 1 0 4.723 3.753" fill="#FFF"/><path d="M79.687 405.189a3.853 3.853 0 0 0-2.99-3.755v-28.96l45.038-45.037v-68.193a3.85 3.85 0 0 0 2.99-3.751 3.857 3.857 0 0 0-7.711 0 3.85 3.85 0 0 0 2.989 3.749v67.478l-45.038 45.036v29.68a3.855 3.855 0 1 0 4.722 3.753m-17.882-74.655c0-2.13-1.725-3.86-3.856-3.86a3.8 3.8 0 0 0-2.035.596l-19.54-19.54h-17.76V241a3.85 3.85 0 0 0 2.99-3.751 3.857 3.857 0 1 0-7.712 0 3.85 3.85 0 0 0 2.99 3.749v68.463h18.774l19.034 19.033a3.823 3.823 0 0 0-.596 2.04 3.855 3.855 0 1 0 7.711 0" fill="#FFF"/></g></svg>