<svg width="139" height="93" xmlns="http://www.w3.org/2000/svg"><g fill="#00C08B" fill-rule="evenodd" opacity=".3"><path d="M168.33 185.002c0-1.583.987-2.93 2.378-3.475V91.119l-20.84-20.84V-79.429l-48.91-48.91-50.672 50.672V17.75l-37.29 37.29c.361.574.578 1.25.578 1.976a3.74 3.74 0 1 1-3.741-3.74 3.7 3.7 0 0 1 1.976.577l36.798-36.797v-95.418l52.35-52.349 50.59 50.59V69.582l20.84 20.84v90.869c1.916.164 3.423 1.752 3.423 3.71a3.74 3.74 0 0 1-7.48 0"/><path d="M151.54 185.002a3.742 3.742 0 0 1 2.903-3.64V91.535L136.71 73.801V-41.617l-22.166-22.165H92.69l-28.311 28.31v60.268L12.996 76.175c.361.574.578 1.25.578 1.976a3.74 3.74 0 1 1-3.741-3.74 3.7 3.7 0 0 1 1.976.577L62.699 24.1v-60.266l29.296-29.295h23.245l23.149 23.15V73.105l17.733 17.734v90.524a3.736 3.736 0 0 1-.843 7.378 3.74 3.74 0 0 1-3.74-3.74M0 34.309a3.74 3.74 0 0 1 3.74-3.743 3.7 3.7 0 0 1 1.976.578l10.641-10.642v-91.833l20.576-20.577a3.718 3.718 0 0 1-.574-1.975 3.74 3.74 0 1 1 3.739 3.74 3.716 3.716 0 0 1-1.978-.577L18.037-70.636v91.833L6.903 32.331c.357.576.574 1.25.574 1.978a3.738 3.738 0 1 1-7.477 0"/><path d="M89.39 88.826a3.74 3.74 0 0 1 3.74-3.742 3.69 3.69 0 0 1 1.721.44l30.883-30.88v-89.046l-14.401-14.4a3.697 3.697 0 0 1-1.976.578 3.737 3.737 0 0 1-3.74-3.74 3.74 3.74 0 1 1 7.477 0c0 .727-.216 1.4-.574 1.975l14.893 14.892v90.436l-31.279 31.28c.455.619.734 1.378.734 2.207a3.738 3.738 0 1 1-7.477 0"/><path d="M55.35 66.149a3.74 3.74 0 0 1 3.74-3.743c.727 0 1.4.217 1.973.578L82.39 41.66 71.642 30.914v-64.208l10.567-10.57h15.813l20.152 20.15V26.93a3.736 3.736 0 0 1 2.9 3.639 3.737 3.737 0 0 1-2.9 3.637v.1h-1.679v-.1a3.737 3.737 0 0 1-2.9-3.637 3.736 3.736 0 0 1 2.9-3.639v-49.945l-19.168-19.17H82.904l-9.583 9.586V30.22l11.443 11.44L62.25 64.172c.36.574.577 1.25.577 1.978a3.738 3.738 0 1 1-7.477 0"/></g></svg>