<svg width="79" height="109" xmlns="http://www.w3.org/2000/svg"><g fill="none"><path d="M41.535.048l-.191.192c20.732 1 37.387 17.199 37.387 37.181a35.787 35.787 0 0 1-6.464 20.502c-3.725 5.356-8.91 9.631-14.792 12.585l-.571.282v4.114h3.886a2.238 2.238 0 0 1 2.225 2.224 2.24 2.24 0 0 1-2.067 2.219l-.158.005h-3.886v3.093h3.886a2.238 2.238 0 0 1 2.225 2.225 2.24 2.24 0 0 1-2.067 2.219l-.158.005h-3.886v3.314h3.886a2.238 2.238 0 0 1 2.225 2.224 2.24 2.24 0 0 1-2.067 2.222l-.158.006h-3.886v11.824a2.306 2.306 0 0 1-2.117 2.211l-.158.007H23.98c-1.181 0-2.06-1.005-2.134-2.097l-.005-.15V94.66h-3.883a2.24 2.24 0 0 1-2.228-2.228 2.24 2.24 0 0 1 2.07-2.219l.158-.005h3.883v-3.314h-3.883a2.239 2.239 0 0 1-2.228-2.224 2.24 2.24 0 0 1 2.07-2.219l.158-.006h3.883v-3.093h-3.883a2.239 2.239 0 0 1-2.228-2.224 2.24 2.24 0 0 1 2.07-2.219l.158-.005h3.883v-4.125C8.56 64.419.072 51.522.072 37.42.072 17.004 17.362.384 38.727.053l.648-.005h2.16zM52.451 94.66H26.297l-.001 9.59H52.45v-9.59zm0-7.766H26.297l-.001 3.314H52.45v-3.314zm0-7.542H26.297l-.001 3.093H52.45v-3.093zM39.387 4.5l-.576.005C19.802 4.797 4.504 19.47 4.504 37.421c0 12.643 7.824 24.293 19.99 29.784l.42.187-.014-.004a2.268 2.268 0 0 1 1.383 1.84l.013.175v5.495H52.45v-5.446a2.202 2.202 0 0 1 1.163-1.984l.148-.072.015-.008a34.676 34.676 0 0 0 14.811-12.015 31.34 31.34 0 0 0 5.685-17.952c0-17.95-15.301-32.624-34.31-32.916l-.576-.005z" fill="#FFF"/><path d="M41.073 22.124a2.243 2.243 0 0 0-2.085 1.886v.004L35.021 50.21a2.238 2.238 0 0 0 2.202 2.557c1.092 0 2.036-.81 2.2-1.893l3.964-26.197a2.24 2.24 0 0 0-1.857-2.532h-.007a2.22 2.22 0 0 0-.448-.022h-.002zm-11.296 4.254a2.222 2.222 0 0 0-1.64.462l-11.165 8.783a2.238 2.238 0 0 0-.375 3.124l.007.007c.103.127.224.254.368.367l11.168 8.783a2.236 2.236 0 0 0 3.124-.374 2.242 2.242 0 0 0-.374-3.127l-8.945-7.032 8.945-7.035a2.24 2.24 0 0 0 .374-3.123 2.236 2.236 0 0 0-1.487-.837v.002zm18.854 0a2.232 2.232 0 0 0-1.483.836 2.238 2.238 0 0 0 .375 3.124l8.94 7.035-8.933 7.028v.003a2.24 2.24 0 0 0-.403 3.12 2.236 2.236 0 0 0 3.109.403h.004c.001-.001.005-.001.007-.003l.025-.018.021-.018.007-.007 11.139-8.76a2.24 2.24 0 0 0 .374-3.127l-.004-.004h-.003a2.295 2.295 0 0 0-.367-.367L50.274 26.84a2.224 2.224 0 0 0-1.641-.462h-.002z" fill="#00C08B"/></g></svg>