<svg width="40" height="40" xmlns="http://www.w3.org/2000/svg"><g fill="none"><path d="M19.594 33.867V22.774c0-.68-.575-1.26-1.26-1.26h-6.59l1.088 1.894c.327-.554.65-1.109.978-1.663l2.348-3.999c.945-1.613 1.895-3.226 2.84-4.839l2.453-4.179c.395-.676.81-1.344 1.188-2.029.005-.008.013-.02.017-.029-.781-.21-1.566-.424-2.348-.634v11.093c0 .68.576 1.26 1.26 1.26h6.591l-1.088-1.895c-.328.555-.651 1.11-.979 1.664l-2.348 3.998c-.945 1.613-1.894 3.226-2.84 4.84l-2.452 4.178c-.395.677-.807 1.344-1.189 2.03l-.017.029c-.332.567-.147 1.407.454 1.722.605.319 1.37.155 1.722-.454.328-.554.651-1.109.979-1.663l2.348-3.999c.945-1.613 1.894-3.226 2.839-4.839.82-1.394 1.638-2.789 2.453-4.179.395-.676.806-1.344 1.189-2.029.004-.008.012-.02.016-.03.484-.822-.134-1.893-1.087-1.893h-6.591l1.26 1.26V6.036c0-.534-.39-1.092-.924-1.214-.546-.126-1.13.084-1.423.58-.328.554-.652 1.108-.98 1.663-.78 1.331-1.566 2.667-2.347 3.999-.945 1.612-1.894 3.225-2.84 4.838-.819 1.395-1.638 2.79-2.452 4.18-.395.676-.807 1.344-1.19 2.028-.003.009-.012.021-.016.03-.483.823.134 1.894 1.088 1.894h6.591l-1.26-1.26v11.093c0 .66.579 1.29 1.26 1.26.68-.03 1.26-.55 1.26-1.26z" fill="#00C08B"/><path d="M37.374 19.951c0 .84-.055 1.676-.168 2.508.017-.114.03-.223.046-.336a18.903 18.903 0 0 1-1.29 4.738l.127-.303a19.068 19.068 0 0 1-2.054 3.663c-.063.088-.13.176-.198.265l-.1.13a19.854 19.854 0 0 1-.403.496 18.763 18.763 0 0 1-1.941 1.978c-.172.15-.349.298-.525.445-.093.076-.185.151-.277.223l-.063.05c-.097.08.16-.134.147-.113-.03.046-.11.084-.156.117-.365.277-.743.538-1.13.786a18.776 18.776 0 0 1-2.818 1.482l.302-.126a18.727 18.727 0 0 1-4.738 1.29c.114-.017.223-.03.336-.046a19.242 19.242 0 0 1-5.01 0c.113.016.222.029.336.046a18.903 18.903 0 0 1-4.436-1.164 19.068 19.068 0 0 1-3.663-2.054c-.088-.063-.176-.13-.264-.197-.042-.034-.088-.067-.13-.1a19.854 19.854 0 0 1-.496-.403 18.763 18.763 0 0 1-2.646-2.744l-.05-.063c-.08-.096.134.16.113.147-.046-.03-.084-.109-.118-.155a18.776 18.776 0 0 1-2.268-3.948l.126.302a18.727 18.727 0 0 1-1.29-4.738c.017.113.03.223.047.336a19.242 19.242 0 0 1 0-5.01c-.017.113-.03.222-.046.335.222-1.63.655-3.221 1.29-4.738l-.127.303A19.068 19.068 0 0 1 5.893 9.69c.063-.088.13-.176.197-.265.034-.042.068-.088.101-.13a19.854 19.854 0 0 1 .403-.496A18.763 18.763 0 0 1 9.06 6.377c.092-.076.185-.151.277-.223l.063-.05c.097-.08-.16.134-.147.113.03-.046.11-.084.156-.117.365-.277.743-.538 1.13-.786a18.776 18.776 0 0 1 2.818-1.482l-.303.126a18.727 18.727 0 0 1 4.738-1.29c-.113.017-.222.03-.336.046a19.242 19.242 0 0 1 5.011 0c-.113-.016-.222-.029-.336-.046 1.63.223 3.222.655 4.738 1.29l-.302-.126a19.068 19.068 0 0 1 3.662 2.054c.089.063.177.13.265.197.042.034.088.067.13.1.147.11-.256-.2-.059-.045a18.763 18.763 0 0 1 2.978 2.915c.076.092.152.184.223.277l.05.063c.08.096-.134-.16-.113-.147.046.03.084.109.118.155a18.776 18.776 0 0 1 2.268 3.948l-.126-.302a18.727 18.727 0 0 1 1.29 4.738c-.018-.113-.03-.223-.047-.336.11.827.164 1.663.168 2.503 0 .66.58 1.29 1.26 1.26.68-.029 1.26-.554 1.26-1.26a20.127 20.127 0 0 0-.953-6.111 19.704 19.704 0 0 0-2.667-5.343 20.672 20.672 0 0 0-4.314-4.456c-1.588-1.218-3.356-2.16-5.234-2.848C24.798.483 22.74.1 20.691.02a20.03 20.03 0 0 0-6.175.735 19.853 19.853 0 0 0-5.448 2.482A19.987 19.987 0 0 0 4.633 7.19a20.738 20.738 0 0 0-3.184 5.33C.668 14.424.227 16.44.067 18.481a20 20 0 0 0 .513 6.22 19.688 19.688 0 0 0 2.293 5.55 19.842 19.842 0 0 0 3.797 4.57c1.487 1.314 3.154 2.431 4.965 3.25 1.957.886 3.99 1.44 6.124 1.693 2.079.244 4.196.126 6.25-.29a19.685 19.685 0 0 0 5.645-2.1 19.985 19.985 0 0 0 4.704-3.637 19.938 19.938 0 0 0 3.42-4.843c.902-1.815 1.55-3.755 1.856-5.759.16-1.054.26-2.117.26-3.184 0-.66-.58-1.29-1.26-1.26-.685.03-1.26.555-1.26 1.26z" fill="#0055B8"/></g></svg>